<svg width="57" height="58" viewBox="0 0 57 58" fill="none" xmlns="http://www.w3.org/2000/svg">
<path d="M51.4188 5.41334C51.1599 5.18727 50.8562 5.02061 50.5283 4.9247C50.2004 4.82878 49.8561 4.80586 49.5188 4.8575L18.6438 9.69084C18.0815 9.77764 17.5685 10.0668 17.1981 10.5059C16.8276 10.9449 16.6243 11.5047 16.625 12.0833V37.0958C15.5153 36.5443 14.2975 36.2552 13.0625 36.25C11.4184 36.25 9.81131 36.7461 8.44433 37.6755C7.07734 38.6049 6.01191 39.9259 5.38276 41.4715C4.7536 43.017 4.58899 44.7177 4.90973 46.3585C5.23047 47.9992 6.02215 49.5064 7.18468 50.6893C8.3472 51.8722 9.82835 52.6778 11.4408 53.0041C13.0533 53.3305 14.7247 53.163 16.2436 52.5228C17.7625 51.8826 19.0607 50.7985 19.9741 49.4075C20.8875 48.0166 21.375 46.3812 21.375 44.7083V26.245L47.5 22.1608V32.2625C46.3903 31.711 45.1725 31.4218 43.9375 31.4167C42.2934 31.4167 40.6863 31.9127 39.3193 32.8422C37.9523 33.7716 36.8869 35.0926 36.2578 36.6381C35.6286 38.1837 35.464 39.8844 35.7847 41.5251C36.1055 43.1659 36.8972 44.673 38.0597 45.8559C39.2222 47.0389 40.7034 47.8444 42.3158 48.1708C43.9283 48.4972 45.5997 48.3297 47.1186 47.6895C48.6375 47.0493 49.9357 45.9652 50.8491 44.5742C51.7625 43.1832 52.25 41.5479 52.25 39.875V7.25C52.25 6.90094 52.1757 6.55601 52.0322 6.23895C51.8887 5.92189 51.6795 5.64023 51.4188 5.41334ZM13.0625 48.3333C12.3579 48.3333 11.6691 48.1207 11.0833 47.7224C10.4974 47.3241 10.0408 46.7579 9.77118 46.0956C9.50155 45.4332 9.431 44.7043 9.56846 44.0011C9.70592 43.298 10.0452 42.652 10.5434 42.1451C11.0417 41.6381 11.6764 41.2929 12.3675 41.153C13.0586 41.0131 13.7749 41.0849 14.4258 41.3593C15.0768 41.6336 15.6332 42.0983 16.0246 42.6944C16.4161 43.2905 16.625 43.9914 16.625 44.7083C16.625 45.6697 16.2497 46.5918 15.5816 47.2716C14.9135 47.9514 14.0073 48.3333 13.0625 48.3333ZM43.9375 43.5C43.2329 43.5 42.5441 43.2874 41.9583 42.8891C41.3724 42.4908 40.9158 41.9246 40.6462 41.2622C40.3766 40.5998 40.306 39.871 40.4435 39.1678C40.5809 38.4646 40.9202 37.8187 41.4184 37.3117C41.9167 36.8048 42.5514 36.4595 43.2425 36.3197C43.9336 36.1798 44.6499 36.2516 45.3008 36.5259C45.9518 36.8003 46.5082 37.2649 46.8996 37.8611C47.2911 38.4572 47.5 39.158 47.5 39.875C47.5 40.8364 47.1247 41.7584 46.4566 42.4383C45.7885 43.1181 44.8823 43.5 43.9375 43.5ZM47.5 17.255L21.375 21.3392V14.0892L47.5 10.0775V17.255Z" fill="#636363"/>
</svg>
