<svg width="37" height="38" viewBox="0 0 37 38" fill="none" xmlns="http://www.w3.org/2000/svg">
<path d="M30.6504 14.9972L14.5504 5.76386C13.6792 5.26079 12.6903 4.99726 11.6843 5.00002C10.6783 5.00278 9.69099 5.27175 8.82257 5.77959C7.95415 6.28744 7.23561 7.01607 6.73993 7.89149C6.24425 8.76691 5.98909 9.75792 6.00036 10.7639V29.2972C6.00036 30.8089 6.60089 32.2587 7.66985 33.3277C8.73881 34.3967 10.1886 34.9972 11.7004 34.9972C12.7011 34.9955 13.6838 34.7311 14.5504 34.2305L30.6504 24.9972C31.5155 24.4965 32.2337 23.7771 32.733 22.9113C33.2323 22.0454 33.4951 21.0634 33.4951 20.0639C33.4951 19.0643 33.2323 18.0824 32.733 17.2165C32.2337 16.3506 31.5155 15.6312 30.6504 15.1305V14.9972ZM28.9837 21.9805L12.8837 31.3472C12.5228 31.5517 12.1151 31.6592 11.7004 31.6592C11.2856 31.6592 10.8779 31.5517 10.517 31.3472C10.1572 31.1394 9.85839 30.8406 9.65066 30.4808C9.44294 30.1209 9.33362 29.7127 9.33369 29.2972V10.6972C9.33362 10.2817 9.44294 9.87349 9.65066 9.51363C9.85839 9.15377 10.1572 8.85495 10.517 8.6472C10.8794 8.44579 11.2859 8.33701 11.7004 8.33053C12.1146 8.33903 12.5206 8.44768 12.8837 8.6472L28.9837 17.9472C29.3437 18.1549 29.6426 18.4536 29.8505 18.8135C30.0583 19.1734 30.1677 19.5816 30.1677 19.9972C30.1677 20.4128 30.0583 20.821 29.8505 21.1809C29.6426 21.5407 29.3437 21.8395 28.9837 22.0472V21.9805Z" fill="#636363"/>
</svg>
