<svg width="114" height="48" viewBox="0 0 114 48" fill="none" xmlns="http://www.w3.org/2000/svg">
<path d="M3.09559 15.9549H6.63233V3.58815H9.66707V0.722144H0.060847V3.58815H3.09559V15.9549Z" fill="white"/>
<path d="M10.7318 0V15.9549H14.2001V8.48519C14.2001 7.28914 14.4055 6.6347 15.2954 6.6347C16.1396 6.6347 16.2993 7.19887 16.2993 8.10155V15.9549H19.7904V7.51481C19.7904 5.23554 18.9234 3.88152 16.8241 3.88152C15.4779 3.88152 14.6565 4.42313 14.2001 5.12271V0H10.7318Z" fill="white"/>
<path d="M30.7037 10.8547C30.7265 10.6065 30.7265 9.95204 30.7265 9.56841C30.7265 6.27362 29.7225 3.90409 26.163 3.90409C23.0826 3.90409 21.4625 5.93512 21.4625 9.95204C21.4625 13.1791 22.1014 16.1805 26.0945 16.1805C30.2245 16.1805 30.5668 13.0437 30.6581 12.2539H27.3267C27.281 12.7955 27.1441 13.5853 26.163 13.5853C25.0905 13.5853 24.9308 12.4118 24.9308 10.8547H30.7037ZM24.9536 8.66572C24.9536 7.58251 25.0677 6.45416 26.163 6.45416C27.2582 6.45416 27.3039 7.51481 27.3039 8.66572H24.9536Z" fill="white"/>
<path d="M36.3826 15.9549H40.6495C44.8251 15.9549 46.4452 13.4499 46.4452 8.05642C46.4452 2.97884 44.8023 0.722144 40.7636 0.722144H36.3826V15.9549ZM39.9193 3.40762H40.6039C42.2924 3.40762 42.7259 4.5134 42.7259 7.98872C42.7259 12.1636 42.2239 13.3145 40.581 13.3145H39.9193V3.40762Z" fill="white"/>
<path d="M56.6122 7.46968C56.6122 5.00987 55.1747 3.90409 52.3681 3.90409C49.0596 3.90409 48.0328 5.55148 47.9872 7.62764H51.2501C51.2957 6.79266 51.4326 6.29619 52.2312 6.29619C53.0983 6.29619 53.1896 6.8378 53.1896 7.46968V8.62059C52.9386 8.62059 52.5735 8.62059 52.2312 8.62059C49.3106 8.62059 47.5536 9.92948 47.5536 12.5021C47.5536 14.5557 48.6032 16.158 50.7253 16.158C52.0031 16.158 52.8245 15.7292 53.4178 14.9394C53.4178 15.2327 53.4862 15.7066 53.5547 15.9549H56.7035C56.6579 15.3681 56.6122 13.8561 56.6122 13.0437V7.46968ZM53.2352 11.3738C53.2352 12.7052 53.0527 13.4951 52.0259 13.4951C51.2729 13.4951 50.9763 12.9083 50.9763 12.2087C50.9763 11.4189 51.3642 10.787 52.5735 10.787C52.8245 10.787 53.007 10.787 53.2352 10.8096V11.3738Z" fill="white"/>
<path d="M64.3433 16.1805C66.6479 16.1805 68.0854 14.5557 68.0854 9.83921C68.0854 5.61918 66.8304 3.90409 64.7084 3.90409C63.134 3.90409 62.4494 4.6488 62.0844 5.32581C62.0844 4.87447 62.0387 4.42313 61.9931 4.10719H58.6389C58.6617 4.82934 58.6845 5.93512 58.6845 7.51481V20.0621H62.1528V15.0748C62.5407 15.7743 63.2937 16.1805 64.3433 16.1805ZM63.2709 13.4499C62.2213 13.4499 62.1072 12.5472 62.1072 9.88434C62.1072 7.51481 62.2897 6.6347 63.2937 6.6347C64.1608 6.6347 64.5715 7.22144 64.5715 9.95204C64.5715 12.5924 64.1608 13.4499 63.2709 13.4499Z" fill="white"/>
<path d="M69.7368 0V15.9549H73.2051V8.48519C73.2051 7.28914 73.4105 6.6347 74.3003 6.6347C75.1446 6.6347 75.3043 7.19887 75.3043 8.10155V15.9549H78.7954V7.51481C78.7954 5.23554 77.9283 3.88152 75.8291 3.88152C74.4829 3.88152 73.6614 4.42313 73.2051 5.12271V0H69.7368Z" fill="white"/>
<path d="M80.8782 15.9549H84.3465V8.34979C84.3465 7.0409 84.7116 6.6347 85.4418 6.6347C86.286 6.6347 86.4457 7.15374 86.4457 8.07898V15.9549H89.9368V7.42454C89.9368 5.16784 88.9329 3.88152 86.9021 3.88152C85.4418 3.88152 84.666 4.60367 84.3009 5.19041C84.2781 4.8519 84.2324 4.35543 84.1868 4.10719H80.8554C80.8782 4.7165 80.8782 5.37094 80.8782 7.83075V15.9549Z" fill="white"/>
<path d="M100.828 10.8547C100.851 10.6065 100.851 9.95204 100.851 9.56841C100.851 6.27362 99.8467 3.90409 96.2871 3.90409C93.2067 3.90409 91.5867 5.93512 91.5867 9.95204C91.5867 13.1791 92.2256 16.1805 96.2186 16.1805C100.349 16.1805 100.691 13.0437 100.782 12.2539H97.4508C97.4052 12.7955 97.2683 13.5853 96.2871 13.5853C95.2147 13.5853 95.0549 12.4118 95.0549 10.8547H100.828ZM95.0778 8.66572C95.0778 7.58251 95.1919 6.45416 96.2871 6.45416C97.3823 6.45416 97.428 7.51481 97.428 8.66572H95.0778Z" fill="white"/>
<path d="M9.1879 37.9502L9.88764 42.283H14.7858L10.6787 21.9727H4.04633L0 42.283H4.71565L5.41539 37.9502H9.1879ZM6.02386 34.0085C6.51063 31.0597 7.02783 27.8401 7.21037 25.8843H7.36249C7.6363 27.7499 8.09266 31.0597 8.54901 34.0085H6.02386Z" fill="white"/>
<path d="M21.0538 42.283V21.0099H16.4294V42.283H21.0538Z" fill="white"/>
<path d="M35.8142 31.4509C35.8142 29.1641 35.8446 27.4189 35.875 26.4861H31.4332C31.3724 26.8171 31.2811 27.3587 31.2507 27.7499C30.9464 27.0879 30.1858 26.2153 28.2691 26.2153C25.1051 26.2153 23.2797 28.8632 23.2797 34.3996C23.2797 39.1236 24.5575 42.0122 27.9345 42.0122C29.3948 42.0122 30.5509 41.5007 31.2202 40.2971V41.3503C31.2202 43.5167 30.9464 44.5999 29.5469 44.5999C28.2083 44.5999 28.0562 43.8176 27.9953 43.3061H23.4622C23.5231 45.5026 24.74 48 29.3036 48C34.4755 48 35.8142 45.4123 35.8142 40.8688V31.4509ZM29.7295 29.8561C31.1898 29.8561 31.2507 31.15 31.2507 33.9182C31.2507 37.1377 31.0073 38.4015 29.6686 38.4015C28.543 38.4015 28.0258 37.4086 28.0258 34.2793C28.0258 30.9093 28.6038 29.8561 29.7295 29.8561Z" fill="white"/>
<path d="M44.4347 26.2153C40.7839 26.2153 38.0458 28.2915 38.0458 34.3094C38.0458 40.5378 40.5101 42.5839 44.2826 42.5839C48.1768 42.5839 50.6716 40.5078 50.6716 34.2191C50.6716 28.5021 48.2377 26.2153 44.4347 26.2153ZM44.3739 29.796C45.6213 29.796 45.9559 30.819 45.9559 34.2793C45.9559 37.6493 45.6821 39.0334 44.4043 39.0334C43.0657 39.0334 42.7614 37.6794 42.7614 34.2793C42.7614 30.8792 43.1569 29.796 44.3739 29.796Z" fill="white"/>
<path d="M52.8842 42.283H57.5085V34.6403C57.5085 31.8119 58.7255 31.1199 61.4332 31.1801V26.2153C59.3035 26.2153 57.9345 27.3286 57.3868 29.0437C57.3868 27.6295 57.326 26.8171 57.2651 26.4861H52.8233C52.8537 27.5393 52.8842 29.1641 52.8842 31.842V42.283Z" fill="white"/>
<path d="M63.2234 42.283H67.8478V26.4861H63.2234V42.283ZM63.2234 24.7409H67.8782V21.0099H63.2234V24.7409Z" fill="white"/>
<path d="M69.5479 30.0968H71.4342V38.4617C71.4342 41.3803 72.4381 42.4936 75.4197 42.4936C76.0585 42.4936 77.2146 42.4636 78.0361 42.1627V38.8829C77.7623 38.9431 77.5797 38.9431 77.2755 38.9431C76.2715 38.9431 76.0585 38.5219 76.0585 37.6794V30.0968H78.2795V26.4861H76.0585V22.725H71.4646V26.4861H69.5479V30.0968Z" fill="white"/>
<path d="M80.0692 21.0099V42.283H84.6936V32.3235C84.6936 30.7287 84.9674 29.8561 86.1539 29.8561C87.2796 29.8561 87.4926 30.6084 87.4926 31.8119V42.283H92.1474V31.0296C92.1474 27.9906 90.9913 26.1852 88.1923 26.1852C86.3973 26.1852 85.3021 26.9074 84.6936 27.8401V21.0099H80.0692Z" fill="white"/>
<path d="M94.9245 42.283H99.5184V32.2332C99.5184 30.5783 99.8835 29.8862 100.948 29.8862C101.77 29.8862 102.196 30.3977 102.196 31.5411V42.283H106.79V32.173C106.79 30.6084 107.124 29.8561 108.22 29.8561C109.132 29.8561 109.436 30.5482 109.436 31.511V42.283H114V30.9694C114 27.7198 112.479 26.2153 109.954 26.2153C107.885 26.2153 106.759 27.1782 106.09 28.141C105.634 27.0578 104.721 26.2153 102.865 26.2153C101.313 26.2153 100.218 26.8171 99.4271 27.9304C99.4271 27.5092 99.3663 26.7268 99.3055 26.4861H94.894C94.9245 27.1481 94.9245 28.2614 94.9245 31.3606V42.283Z" fill="white"/>
</svg>
